<?xml version="1.0" standalone="no"?><!-- Generator: Gravit.io --><svg xmlns="http://www.w3.org/2000/svg" xmlns:xlink="http://www.w3.org/1999/xlink" style="isolation:isolate" viewBox="0 0 300 300" width="300" height="300"><rect x="91.337" y="169.024" width="121.545" height="110.976" transform="matrix(1,0,0,1,0,0)" fill="rgb(227,41,41)"/><path d=" M 99 98.476 C 99 87.976 107.525 79.451 118.024 79.451 C 128.524 79.451 137.049 87.976 137.049 98.476 C 137.049 108.975 128.524 117.5 118.024 117.5 C 107.525 117.5 99 108.975 99 98.476 Z " fill="none" vector-effect="non-scaling-stroke" stroke-width="7.927" stroke="rgb(255,255,255)" stroke-linejoin="miter" stroke-linecap="square" stroke-miterlimit="3"/><g id="logo"><path d=" M 153.371 257.766 L 156.356 257.65 L 159.322 257.458 L 162.268 257.191 L 168.093 256.434 L 173.825 255.388 L 179.456 254.06 L 184.979 252.457 L 190.387 250.587 L 195.671 248.458 L 200.826 246.076 L 205.844 243.449 L 210.717 240.585 L 215.438 237.492 L 220 234.176 L 224.396 230.646 L 228.618 226.908 L 232.659 222.97 L 236.511 218.84 L 240.168 214.525 L 243.622 210.033 L 246.865 205.371 L 249.891 200.547 L 252.692 195.568 L 255.261 190.441 L 257.591 185.174 L 259.674 179.775 L 261.503 174.251 L 263.07 168.61 L 264.369 162.859 L 265.392 157.005 L 266.132 151.056 L 266.581 145.019 L 266.732 138.902 L 266.634 137.926 L 266.351 137.016 L 265.905 136.193 L 265.313 135.476 L 264.596 134.884 L 263.772 134.437 L 262.863 134.155 L 261.886 134.056 L 150.366 134.056 L 149.389 134.155 L 148.48 134.437 L 147.657 134.884 L 146.939 135.476 L 146.348 136.193 L 145.901 137.016 L 145.618 137.926 L 145.52 138.902 L 145.52 252.959 L 145.618 253.935 L 145.901 254.845 L 146.348 255.668 L 146.939 256.385 L 147.657 256.977 L 148.48 257.424 L 149.389 257.706 L 150.366 257.805 L 153.371 257.766 Z  M 150.366 138.902 L 261.886 138.902 L 261.741 144.772 L 261.31 150.564 L 260.601 156.272 L 259.62 161.889 L 258.375 167.407 L 256.872 172.819 L 255.119 178.119 L 253.122 183.298 L 250.889 188.351 L 248.426 193.268 L 245.741 198.045 L 242.84 202.672 L 239.731 207.144 L 236.42 211.453 L 232.915 215.591 L 229.223 219.552 L 225.35 223.329 L 221.303 226.914 L 217.09 230.3 L 212.718 233.48 L 208.193 236.446 L 203.523 239.193 L 198.715 241.711 L 193.775 243.996 L 188.71 246.038 L 183.529 247.831 L 178.237 249.368 L 172.841 250.641 L 167.349 251.644 L 161.768 252.37 L 156.105 252.81 L 150.366 252.959 L 150.366 138.902 Z " fill="rgb(255,255,255)"/><path d=" M 150.366 138.902 L 261.886 138.902 C 261.886 201.894 211.957 252.959 150.366 252.959 L 150.366 138.902 Z " fill="rgb(227,41,41)"/><path d=" M 150.366 138.902 L 150.366 24.846 C 211.957 24.846 261.886 75.911 261.886 138.902 L 150.366 138.902 Z " fill="rgb(227,41,41)"/><path d=" M 150.366 138.902 L 150.366 252.959 C 88.775 252.959 38.846 201.894 38.846 138.902 L 150.366 138.902 Z " fill="rgb(227,41,41)"/><path d=" M 150.366 138.902 L 38.846 138.902 C 38.846 75.911 88.775 24.846 150.366 24.846 L 150.366 138.902 Z " fill="rgb(227,41,41)"/><path d=" M 262.863 143.65 L 263.772 143.368 L 264.596 142.921 L 265.313 142.329 L 265.905 141.612 L 266.351 140.789 L 266.634 139.879 L 266.732 138.902 L 266.581 132.786 L 266.132 126.749 L 265.392 120.8 L 264.369 114.946 L 263.07 109.195 L 261.503 103.553 L 259.674 98.029 L 257.591 92.63 L 255.261 87.364 L 252.692 82.237 L 249.891 77.258 L 246.865 72.434 L 243.622 67.772 L 240.168 63.279 L 236.511 58.965 L 232.659 54.835 L 228.618 50.897 L 224.396 47.159 L 220 43.629 L 215.438 40.313 L 210.717 37.219 L 205.844 34.356 L 200.826 31.729 L 195.671 29.347 L 190.387 27.218 L 184.979 25.348 L 179.456 23.745 L 173.825 22.417 L 168.093 21.371 L 162.268 20.614 L 159.322 20.347 L 156.356 20.155 L 153.371 20.039 L 150.366 20 L 149.389 20.098 L 148.48 20.381 L 147.657 20.828 L 146.939 21.419 L 146.348 22.137 L 145.901 22.96 L 145.618 23.87 L 145.52 24.846 L 145.52 138.902 L 145.618 139.879 L 145.901 140.789 L 146.348 141.612 L 146.939 142.329 L 147.657 142.921 L 148.48 143.368 L 149.389 143.65 L 150.366 143.749 L 261.886 143.749 L 262.863 143.65 Z  M 150.366 138.902 L 150.366 24.846 L 156.105 24.995 L 161.768 25.435 L 167.349 26.16 L 172.841 27.163 L 178.237 28.437 L 183.529 29.974 L 188.71 31.767 L 193.775 33.809 L 198.715 36.093 L 203.523 38.612 L 208.193 41.359 L 212.718 44.325 L 217.09 47.505 L 221.303 50.891 L 225.35 54.476 L 229.223 58.253 L 232.915 62.214 L 236.42 66.352 L 239.731 70.661 L 242.84 75.133 L 245.741 79.76 L 248.426 84.536 L 250.889 89.454 L 253.122 94.507 L 255.119 99.686 L 256.872 104.986 L 258.375 110.398 L 259.62 115.916 L 260.601 121.533 L 261.31 127.241 L 261.741 133.033 L 261.886 138.902 L 150.366 138.902 Z " fill="rgb(255,255,255)"/><path d=" M 151.343 257.706 L 152.252 257.424 L 153.076 256.977 L 153.793 256.385 L 154.385 255.668 L 154.831 254.845 L 155.114 253.935 L 155.212 252.959 L 155.212 138.902 L 155.114 137.926 L 154.831 137.016 L 154.385 136.193 L 153.793 135.476 L 153.076 134.884 L 152.252 134.437 L 151.343 134.155 L 150.366 134.056 L 38.846 134.056 L 37.87 134.155 L 36.96 134.437 L 36.137 134.884 L 35.419 135.476 L 34.828 136.193 L 34.381 137.016 L 34.098 137.926 L 34 138.902 L 34.151 145.019 L 34.601 151.056 L 35.34 157.005 L 36.363 162.859 L 37.662 168.61 L 39.229 174.251 L 41.058 179.775 L 43.141 185.174 L 45.471 190.441 L 48.04 195.568 L 50.841 200.547 L 53.867 205.371 L 57.111 210.033 L 60.564 214.525 L 64.221 218.84 L 68.074 222.97 L 72.114 226.908 L 76.336 230.646 L 80.732 234.176 L 85.294 237.492 L 90.015 240.585 L 94.888 243.449 L 99.906 246.076 L 105.061 248.458 L 110.346 250.587 L 115.753 252.457 L 121.276 254.06 L 126.907 255.388 L 132.639 256.434 L 138.464 257.191 L 141.41 257.458 L 144.376 257.65 L 147.361 257.766 L 150.366 257.805 L 151.343 257.706 Z  M 144.627 252.81 L 138.964 252.37 L 133.383 251.644 L 127.891 250.641 L 122.496 249.368 L 117.204 247.831 L 112.022 246.038 L 106.957 243.996 L 102.018 241.711 L 97.209 239.193 L 92.539 236.446 L 88.014 233.48 L 83.642 230.3 L 79.429 226.914 L 75.383 223.329 L 71.51 219.552 L 67.817 215.591 L 64.312 211.453 L 61.001 207.144 L 57.892 202.672 L 54.991 198.045 L 52.306 193.268 L 49.843 188.351 L 47.61 183.298 L 45.613 178.119 L 43.86 172.819 L 42.357 167.407 L 41.112 161.889 L 40.131 156.272 L 39.422 150.564 L 38.991 144.772 L 38.846 138.902 L 150.366 138.902 L 150.366 252.959 L 144.627 252.81 Z " fill="rgb(255,255,255)"/><path d=" M 238.971 138.902 C 238.971 88.877 199.301 48.324 150.366 48.324 C 101.431 48.324 61.761 88.877 61.761 138.902 C 61.761 188.928 101.431 229.481 150.366 229.481 C 199.301 229.481 238.971 188.928 238.971 138.902 Z " fill="rgb(255,255,255)"/></g><path d=" M 95.745 138.866 C 95.745 109.136 120.615 85 151.249 85 C 181.883 85 206.754 109.136 206.754 138.866 C 206.754 168.595 181.883 192.731 151.249 192.731 C 120.615 192.731 95.745 168.595 95.745 138.866 Z " fill="rgb(0,0,0)"/><g style="isolation:isolate" id="Layer 0"/></svg>