<?xml version="1.0" standalone="no"?><!-- Generator: Gravit.io --><svg xmlns="http://www.w3.org/2000/svg" xmlns:xlink="http://www.w3.org/1999/xlink" style="isolation:isolate" viewBox="0 0 300 300" width="300" height="300"><path d=" M 33 138.902 C 33 73.278 85.366 20 149.866 20 C 214.366 20 266.732 73.278 266.732 138.902 C 266.732 204.527 214.366 257.805 149.866 257.805 C 85.366 257.805 33 204.527 33 138.902 Z " fill="rgb(255,255,255)"/><path d=" M 99 98.476 C 99 87.976 107.525 79.451 118.024 79.451 C 128.524 79.451 137.049 87.976 137.049 98.476 C 137.049 108.975 128.524 117.5 118.024 117.5 C 107.525 117.5 99 108.975 99 98.476 Z " fill="none" vector-effect="non-scaling-stroke" stroke-width="7.927" stroke="rgb(255,255,255)" stroke-opacity="100" stroke-linejoin="miter" stroke-linecap="square" stroke-miterlimit="3"/><g id="logo"><path d=" M 153.371 257.766 L 156.356 257.65 L 159.322 257.458 L 162.268 257.191 L 168.093 256.434 L 173.825 255.388 L 179.456 254.06 L 184.979 252.457 L 190.387 250.587 L 195.671 248.458 L 200.826 246.076 L 205.844 243.449 L 210.717 240.585 L 215.438 237.492 L 220 234.176 L 224.396 230.646 L 228.618 226.908 L 232.659 222.97 L 236.511 218.84 L 240.168 214.525 L 243.622 210.033 L 246.865 205.371 L 249.891 200.547 L 252.692 195.568 L 255.261 190.441 L 257.591 185.174 L 259.674 179.775 L 261.503 174.251 L 263.07 168.61 L 264.369 162.859 L 265.392 157.005 L 266.132 151.056 L 266.581 145.019 L 266.732 138.902 L 266.634 137.926 L 266.351 137.016 L 265.905 136.193 L 265.313 135.476 L 264.596 134.884 L 263.772 134.437 L 262.863 134.155 L 261.886 134.056 L 150.366 134.056 L 149.389 134.155 L 148.48 134.437 L 147.657 134.884 L 146.939 135.476 L 146.348 136.193 L 145.901 137.016 L 145.618 137.926 L 145.52 138.902 L 145.52 252.959 L 145.618 253.935 L 145.901 254.845 L 146.348 255.668 L 146.939 256.385 L 147.657 256.977 L 148.48 257.424 L 149.389 257.706 L 150.366 257.805 L 153.371 257.766 Z  M 150.366 138.902 L 261.886 138.902 L 261.741 144.772 L 261.31 150.564 L 260.601 156.272 L 259.62 161.889 L 258.375 167.407 L 256.872 172.819 L 255.119 178.119 L 253.122 183.298 L 250.889 188.351 L 248.426 193.268 L 245.741 198.045 L 242.84 202.672 L 239.731 207.144 L 236.42 211.453 L 232.915 215.591 L 229.223 219.552 L 225.35 223.329 L 221.303 226.914 L 217.09 230.3 L 212.718 233.48 L 208.193 236.446 L 203.523 239.193 L 198.715 241.711 L 193.775 243.996 L 188.71 246.038 L 183.529 247.831 L 178.237 249.368 L 172.841 250.641 L 167.349 251.644 L 161.768 252.37 L 156.105 252.81 L 150.366 252.959 L 150.366 138.902 Z " fill="rgb(255,255,255)"/><path d=" M 150.366 138.902 L 261.886 138.902 C 261.886 201.894 211.957 252.959 150.366 252.959 L 150.366 138.902 Z " fill="rgb(227,41,41)"/><path d=" M 150.366 138.902 L 150.366 24.846 C 211.957 24.846 261.886 75.911 261.886 138.902 L 150.366 138.902 Z " fill="rgb(227,41,41)"/><path d=" M 150.366 138.902 L 150.366 252.959 C 88.775 252.959 38.846 201.894 38.846 138.902 L 150.366 138.902 Z " fill="rgb(227,41,41)"/><path d=" M 150.366 138.902 L 38.846 138.902 C 38.846 75.911 88.775 24.846 150.366 24.846 L 150.366 138.902 Z " fill="rgb(227,41,41)"/><path d=" M 262.863 138.807 L 263.772 138.536 L 264.596 138.106 L 265.313 137.538 L 265.905 136.849 L 266.351 136.058 L 266.634 135.184 L 266.732 134.245 L 266.581 128.368 L 266.132 122.568 L 265.392 116.852 L 264.369 111.227 L 263.07 105.701 L 261.503 100.28 L 259.674 94.973 L 257.591 89.785 L 255.261 84.725 L 252.692 79.799 L 249.891 75.015 L 246.865 70.38 L 243.622 65.901 L 240.168 61.584 L 236.511 57.439 L 232.659 53.471 L 228.618 49.687 L 224.396 46.095 L 220 42.704 L 215.438 39.517 L 210.717 36.545 L 205.844 33.794 L 200.826 31.27 L 195.671 28.981 L 190.387 26.935 L 184.979 25.139 L 179.456 23.598 L 173.825 22.322 L 168.093 21.317 L 162.268 20.59 L 159.322 20.333 L 156.356 20.149 L 153.371 20.037 L 150.366 20 L 149.389 20.094 L 148.48 20.366 L 147.657 20.796 L 146.939 21.363 L 146.348 22.053 L 145.901 22.844 L 145.618 23.718 L 145.52 24.656 L 145.52 134.245 L 145.618 135.184 L 145.901 136.058 L 146.348 136.849 L 146.939 137.538 L 147.657 138.106 L 148.48 138.536 L 149.389 138.807 L 150.366 138.902 L 261.886 138.902 L 262.863 138.807 Z  M 150.366 134.245 L 150.366 24.656 L 156.105 24.799 L 161.768 25.222 L 167.349 25.919 L 172.841 26.882 L 178.237 28.107 L 183.529 29.583 L 188.71 31.306 L 193.775 33.268 L 198.715 35.463 L 203.523 37.883 L 208.193 40.522 L 212.718 43.372 L 217.09 46.428 L 221.303 49.681 L 225.35 53.126 L 229.223 56.755 L 232.915 60.561 L 236.42 64.536 L 239.731 68.677 L 242.84 72.974 L 245.741 77.419 L 248.426 82.008 L 250.889 86.734 L 253.122 91.589 L 255.119 96.565 L 256.872 101.657 L 258.375 106.857 L 259.62 112.159 L 260.601 117.556 L 261.31 123.041 L 261.741 128.606 L 261.886 134.245 L 150.366 134.245 Z " fill="rgb(255,255,255)"/><path d=" M 146.652 257.706 L 147.524 257.424 L 148.315 256.977 L 149.004 256.385 L 149.572 255.668 L 150 254.845 L 150.272 253.935 L 150.366 252.959 L 150.366 138.902 L 150.272 137.926 L 150 137.016 L 149.572 136.193 L 149.004 135.476 L 148.315 134.884 L 147.524 134.437 L 146.652 134.155 L 145.714 134.056 L 38.652 134.056 L 37.715 134.155 L 36.842 134.437 L 36.052 134.884 L 35.362 135.476 L 34.795 136.193 L 34.366 137.016 L 34.094 137.926 L 34 138.902 L 34.145 145.019 L 34.577 151.056 L 35.286 157.005 L 36.269 162.859 L 37.516 168.61 L 39.02 174.251 L 40.776 179.775 L 42.776 185.174 L 45.012 190.441 L 47.479 195.568 L 50.168 200.547 L 53.073 205.371 L 56.187 210.033 L 59.502 214.525 L 63.013 218.84 L 66.712 222.97 L 70.59 226.908 L 74.643 230.646 L 78.864 234.176 L 83.243 237.492 L 87.776 240.585 L 92.454 243.449 L 97.271 246.076 L 102.22 248.458 L 107.294 250.587 L 112.485 252.457 L 117.787 254.06 L 123.193 255.388 L 128.695 256.434 L 134.288 257.191 L 137.116 257.458 L 139.963 257.65 L 142.829 257.766 L 145.714 257.805 L 146.652 257.706 Z  M 140.204 252.81 L 134.768 252.37 L 129.41 251.644 L 124.137 250.641 L 118.958 249.368 L 113.878 247.831 L 108.903 246.038 L 104.04 243.996 L 99.299 241.711 L 94.682 239.193 L 90.199 236.446 L 85.855 233.48 L 81.657 230.3 L 77.613 226.914 L 73.729 223.329 L 70.01 219.552 L 66.465 215.591 L 63.1 211.453 L 59.922 207.144 L 56.937 202.672 L 54.152 198.045 L 51.574 193.268 L 49.21 188.351 L 47.066 183.298 L 45.149 178.119 L 43.466 172.819 L 42.023 167.407 L 40.828 161.889 L 39.886 156.272 L 39.205 150.564 L 38.791 144.772 L 38.652 138.902 L 145.714 138.902 L 145.714 252.959 L 140.204 252.81 Z " fill="rgb(255,255,255)"/><path d=" M 238.971 138.902 C 238.971 88.877 199.301 48.324 150.366 48.324 C 101.431 48.324 61.761 88.877 61.761 138.902 C 61.761 188.928 101.431 229.481 150.366 229.481 C 199.301 229.481 238.971 188.928 238.971 138.902 Z " fill="rgb(255,255,255)"/></g><path d=" M 150.273 23.763 L 150.008 22.879 L 149.587 22.078 L 149.031 21.38 L 148.356 20.804 L 147.583 20.371 L 146.727 20.095 L 145.808 20 L 140.057 20.147 L 134.38 20.584 L 128.786 21.303 L 123.281 22.298 L 117.874 23.562 L 112.568 25.086 L 107.374 26.865 L 102.297 28.891 L 97.345 31.158 L 92.524 33.657 L 87.842 36.381 L 83.306 39.325 L 78.922 42.479 L 74.697 45.839 L 70.64 49.396 L 66.757 53.143 L 63.054 57.073 L 59.539 61.18 L 56.219 65.456 L 53.101 69.893 L 50.192 74.486 L 47.5 79.226 L 45.029 84.107 L 42.789 89.121 L 40.787 94.261 L 39.029 99.521 L 37.522 104.893 L 36.273 110.37 L 35.289 115.946 L 34.577 121.612 L 34.326 124.477 L 34.146 127.362 L 34.037 130.266 L 34 133.189 L 34.092 134.139 L 34.358 135.023 L 34.779 135.824 L 35.334 136.522 L 36.01 137.097 L 36.783 137.532 L 37.639 137.807 L 38.557 137.902 L 145.808 137.902 L 146.727 137.807 L 147.583 137.532 L 148.356 137.097 L 149.031 136.522 L 149.587 135.824 L 150.008 135.023 L 150.273 134.139 L 150.366 133.189 L 150.366 24.714 L 150.273 23.763 Z  M 145.808 133.189 L 38.557 133.189 L 38.697 127.607 L 39.111 122.098 L 39.792 116.67 L 40.736 111.327 L 41.934 106.079 L 43.379 100.931 L 45.065 95.892 L 46.985 90.965 L 49.133 86.16 L 51.502 81.483 L 54.085 76.941 L 56.874 72.539 L 59.864 68.287 L 63.048 64.189 L 66.419 60.252 L 69.971 56.485 L 73.695 52.894 L 77.587 49.484 L 81.639 46.264 L 85.844 43.24 L 90.195 40.418 L 94.686 37.806 L 99.31 35.41 L 104.062 33.238 L 108.932 31.296 L 113.916 29.591 L 119.005 28.129 L 124.194 26.918 L 129.475 25.964 L 134.843 25.274 L 140.289 24.855 L 145.808 24.714 L 145.808 133.189 Z " fill="rgb(255,255,255)"/><path d=" M 89.238 138.452 C 89.238 104.508 116.795 76.951 150.738 76.951 C 184.681 76.951 212.238 104.508 212.238 138.452 C 212.238 172.394 184.681 199.951 150.738 199.951 C 116.795 199.951 89.238 172.394 89.238 138.452 Z " fill="rgb(0,0,0)"/><path d=" M 153.683 104.274 Q 157.29 104.274 160.99 104.604 Q 164.689 104.934 168.62 105.55 Q 172.551 106.166 175.881 106.957 Q 179.21 107.749 181.985 108.76 L 174.216 129.915 Q 170.562 125.253 166.077 122.681 Q 161.591 120.108 156.689 120.108 Q 153.775 120.108 152.48 121.229 Q 151.186 122.351 151.186 124.022 Q 151.186 125.605 153.706 127.057 Q 156.226 128.508 161.498 130.399 Q 175.233 135.193 179.256 139.943 Q 183.187 144.605 183.187 151.466 Q 183.187 162.154 174.655 167.849 Q 166.123 173.545 149.243 173.545 Q 140.457 173.545 132.549 172.401 Q 124.641 171.258 117.01 168.487 L 124.641 146.057 Q 127.878 150.894 132.826 153.841 Q 137.728 156.788 142.306 156.788 Q 144.572 156.788 146.075 155.71 Q 147.578 154.633 147.578 153.006 Q 147.578 151.07 145.474 149.641 Q 143.37 148.212 138.931 146.584 Q 128.017 142.67 123.947 138.096 Q 119.924 133.478 119.924 126.793 Q 119.924 115.578 128.433 109.926 Q 136.942 104.274 153.683 104.274 Z " fill="rgb(255,255,255)"/></svg>