<?xml version="1.0" standalone="no"?><!-- Generator: Gravit.io --><svg xmlns="http://www.w3.org/2000/svg" xmlns:xlink="http://www.w3.org/1999/xlink" style="isolation:isolate" viewBox="0 0 300 300" width="300" height="300"><path d=" M 33 138.902 C 33 73.278 85.366 20 149.866 20 C 214.366 20 266.732 73.278 266.732 138.902 C 266.732 204.527 214.366 257.805 149.866 257.805 C 85.366 257.805 33 204.527 33 138.902 Z " fill="rgb(255,255,255)"/><rect x="91.337" y="169.024" width="121.545" height="110.976" transform="matrix(1,0,0,1,0,0)" fill="rgb(227,41,41)"/><path d=" M 99 98.476 C 99 87.976 107.525 79.451 118.024 79.451 C 128.524 79.451 137.049 87.976 137.049 98.476 C 137.049 108.975 128.524 117.5 118.024 117.5 C 107.525 117.5 99 108.975 99 98.476 Z " fill="none" vector-effect="non-scaling-stroke" stroke-width="7.927" stroke="rgb(255,255,255)" stroke-opacity="100" stroke-linejoin="miter" stroke-linecap="square" stroke-miterlimit="3"/><g id="logo"><path d=" M 153.371 257.766 L 156.356 257.65 L 159.322 257.458 L 162.268 257.191 L 168.093 256.434 L 173.825 255.388 L 179.456 254.06 L 184.979 252.457 L 190.387 250.587 L 195.671 248.458 L 200.826 246.076 L 205.844 243.449 L 210.717 240.585 L 215.438 237.492 L 220 234.176 L 224.396 230.646 L 228.618 226.908 L 232.659 222.97 L 236.511 218.84 L 240.168 214.525 L 243.622 210.033 L 246.865 205.371 L 249.891 200.547 L 252.692 195.568 L 255.261 190.441 L 257.591 185.174 L 259.674 179.775 L 261.503 174.251 L 263.07 168.61 L 264.369 162.859 L 265.392 157.005 L 266.132 151.056 L 266.581 145.019 L 266.732 138.902 L 266.634 137.926 L 266.351 137.016 L 265.905 136.193 L 265.313 135.476 L 264.596 134.884 L 263.772 134.437 L 262.863 134.155 L 261.886 134.056 L 150.366 134.056 L 149.389 134.155 L 148.48 134.437 L 147.657 134.884 L 146.939 135.476 L 146.348 136.193 L 145.901 137.016 L 145.618 137.926 L 145.52 138.902 L 145.52 252.959 L 145.618 253.935 L 145.901 254.845 L 146.348 255.668 L 146.939 256.385 L 147.657 256.977 L 148.48 257.424 L 149.389 257.706 L 150.366 257.805 L 153.371 257.766 Z  M 150.366 138.902 L 261.886 138.902 L 261.741 144.772 L 261.31 150.564 L 260.601 156.272 L 259.62 161.889 L 258.375 167.407 L 256.872 172.819 L 255.119 178.119 L 253.122 183.298 L 250.889 188.351 L 248.426 193.268 L 245.741 198.045 L 242.84 202.672 L 239.731 207.144 L 236.42 211.453 L 232.915 215.591 L 229.223 219.552 L 225.35 223.329 L 221.303 226.914 L 217.09 230.3 L 212.718 233.48 L 208.193 236.446 L 203.523 239.193 L 198.715 241.711 L 193.775 243.996 L 188.71 246.038 L 183.529 247.831 L 178.237 249.368 L 172.841 250.641 L 167.349 251.644 L 161.768 252.37 L 156.105 252.81 L 150.366 252.959 L 150.366 138.902 Z " fill="rgb(255,255,255)"/><path d=" M 150.366 138.902 L 261.886 138.902 C 261.886 201.894 211.957 252.959 150.366 252.959 L 150.366 138.902 Z " fill="rgb(227,41,41)"/><path d=" M 150.366 138.902 L 150.366 24.846 C 211.957 24.846 261.886 75.911 261.886 138.902 L 150.366 138.902 Z " fill="rgb(227,41,41)"/><path d=" M 150.366 138.902 L 150.366 252.959 C 88.775 252.959 38.846 201.894 38.846 138.902 L 150.366 138.902 Z " fill="rgb(227,41,41)"/><path d=" M 150.366 138.902 L 38.846 138.902 C 38.846 75.911 88.775 24.846 150.366 24.846 L 150.366 138.902 Z " fill="rgb(227,41,41)"/><path d=" M 262.863 143.65 L 263.772 143.368 L 264.596 142.921 L 265.313 142.329 L 265.905 141.612 L 266.351 140.789 L 266.634 139.879 L 266.732 138.902 L 266.581 132.786 L 266.132 126.749 L 265.392 120.8 L 264.369 114.946 L 263.07 109.195 L 261.503 103.553 L 259.674 98.029 L 257.591 92.63 L 255.261 87.364 L 252.692 82.237 L 249.891 77.258 L 246.865 72.434 L 243.622 67.772 L 240.168 63.279 L 236.511 58.965 L 232.659 54.835 L 228.618 50.897 L 224.396 47.159 L 220 43.629 L 215.438 40.313 L 210.717 37.219 L 205.844 34.356 L 200.826 31.729 L 195.671 29.347 L 190.387 27.218 L 184.979 25.348 L 179.456 23.745 L 173.825 22.417 L 168.093 21.371 L 162.268 20.614 L 159.322 20.347 L 156.356 20.155 L 153.371 20.039 L 150.366 20 L 149.389 20.098 L 148.48 20.381 L 147.657 20.828 L 146.939 21.419 L 146.348 22.137 L 145.901 22.96 L 145.618 23.87 L 145.52 24.846 L 145.52 138.902 L 145.618 139.879 L 145.901 140.789 L 146.348 141.612 L 146.939 142.329 L 147.657 142.921 L 148.48 143.368 L 149.389 143.65 L 150.366 143.749 L 261.886 143.749 L 262.863 143.65 Z  M 150.366 138.902 L 150.366 24.846 L 156.105 24.995 L 161.768 25.435 L 167.349 26.16 L 172.841 27.163 L 178.237 28.437 L 183.529 29.974 L 188.71 31.767 L 193.775 33.809 L 198.715 36.093 L 203.523 38.612 L 208.193 41.359 L 212.718 44.325 L 217.09 47.505 L 221.303 50.891 L 225.35 54.476 L 229.223 58.253 L 232.915 62.214 L 236.42 66.352 L 239.731 70.661 L 242.84 75.133 L 245.741 79.76 L 248.426 84.536 L 250.889 89.454 L 253.122 94.507 L 255.119 99.686 L 256.872 104.986 L 258.375 110.398 L 259.62 115.916 L 260.601 121.533 L 261.31 127.241 L 261.741 133.033 L 261.886 138.902 L 150.366 138.902 Z " fill="rgb(255,255,255)"/><path d=" M 151.343 257.706 L 152.252 257.424 L 153.076 256.977 L 153.793 256.385 L 154.385 255.668 L 154.831 254.845 L 155.114 253.935 L 155.212 252.959 L 155.212 138.902 L 155.114 137.926 L 154.831 137.016 L 154.385 136.193 L 153.793 135.476 L 153.076 134.884 L 152.252 134.437 L 151.343 134.155 L 150.366 134.056 L 38.846 134.056 L 37.87 134.155 L 36.96 134.437 L 36.137 134.884 L 35.419 135.476 L 34.828 136.193 L 34.381 137.016 L 34.098 137.926 L 34 138.902 L 34.151 145.019 L 34.601 151.056 L 35.34 157.005 L 36.363 162.859 L 37.662 168.61 L 39.229 174.251 L 41.058 179.775 L 43.141 185.174 L 45.471 190.441 L 48.04 195.568 L 50.841 200.547 L 53.867 205.371 L 57.111 210.033 L 60.564 214.525 L 64.221 218.84 L 68.074 222.97 L 72.114 226.908 L 76.336 230.646 L 80.732 234.176 L 85.294 237.492 L 90.015 240.585 L 94.888 243.449 L 99.906 246.076 L 105.061 248.458 L 110.346 250.587 L 115.753 252.457 L 121.276 254.06 L 126.907 255.388 L 132.639 256.434 L 138.464 257.191 L 141.41 257.458 L 144.376 257.65 L 147.361 257.766 L 150.366 257.805 L 151.343 257.706 Z  M 144.627 252.81 L 138.964 252.37 L 133.383 251.644 L 127.891 250.641 L 122.496 249.368 L 117.204 247.831 L 112.022 246.038 L 106.957 243.996 L 102.018 241.711 L 97.209 239.193 L 92.539 236.446 L 88.014 233.48 L 83.642 230.3 L 79.429 226.914 L 75.383 223.329 L 71.51 219.552 L 67.817 215.591 L 64.312 211.453 L 61.001 207.144 L 57.892 202.672 L 54.991 198.045 L 52.306 193.268 L 49.843 188.351 L 47.61 183.298 L 45.613 178.119 L 43.86 172.819 L 42.357 167.407 L 41.112 161.889 L 40.131 156.272 L 39.422 150.564 L 38.991 144.772 L 38.846 138.902 L 150.366 138.902 L 150.366 252.959 L 144.627 252.81 Z " fill="rgb(255,255,255)"/><path d=" M 238.971 138.902 C 238.971 88.877 199.301 48.324 150.366 48.324 C 101.431 48.324 61.761 88.877 61.761 138.902 C 61.761 188.928 101.431 229.481 150.366 229.481 C 199.301 229.481 238.971 188.928 238.971 138.902 Z " fill="rgb(255,255,255)"/></g><path d=" M 150.273 23.763 L 150.008 22.879 L 149.587 22.078 L 149.031 21.38 L 148.356 20.804 L 147.583 20.371 L 146.727 20.095 L 145.808 20 L 140.057 20.147 L 134.38 20.584 L 128.786 21.303 L 123.281 22.298 L 117.874 23.562 L 112.568 25.086 L 107.374 26.865 L 102.297 28.891 L 97.345 31.158 L 92.524 33.657 L 87.842 36.381 L 83.306 39.325 L 78.922 42.479 L 74.697 45.839 L 70.64 49.396 L 66.757 53.143 L 63.054 57.073 L 59.539 61.18 L 56.219 65.456 L 53.101 69.893 L 50.192 74.486 L 47.5 79.226 L 45.029 84.107 L 42.789 89.121 L 40.787 94.261 L 39.029 99.521 L 37.522 104.893 L 36.273 110.37 L 35.289 115.946 L 34.577 121.612 L 34.326 124.477 L 34.146 127.362 L 34.037 130.266 L 34 133.189 L 34.092 134.139 L 34.358 135.023 L 34.779 135.824 L 35.334 136.522 L 36.01 137.097 L 36.783 137.532 L 37.639 137.807 L 38.557 137.902 L 145.808 137.902 L 146.727 137.807 L 147.583 137.532 L 148.356 137.097 L 149.031 136.522 L 149.587 135.824 L 150.008 135.023 L 150.273 134.139 L 150.366 133.189 L 150.366 24.714 L 150.273 23.763 Z  M 145.808 133.189 L 38.557 133.189 L 38.697 127.607 L 39.111 122.098 L 39.792 116.67 L 40.736 111.327 L 41.934 106.079 L 43.379 100.931 L 45.065 95.892 L 46.985 90.965 L 49.133 86.16 L 51.502 81.483 L 54.085 76.941 L 56.874 72.539 L 59.864 68.287 L 63.048 64.189 L 66.419 60.252 L 69.971 56.485 L 73.695 52.894 L 77.587 49.484 L 81.639 46.264 L 85.844 43.24 L 90.195 40.418 L 94.686 37.806 L 99.31 35.41 L 104.062 33.238 L 108.932 31.296 L 113.916 29.591 L 119.005 28.129 L 124.194 26.918 L 129.475 25.964 L 134.843 25.274 L 140.289 24.855 L 145.808 24.714 L 145.808 133.189 Z " fill="rgb(255,255,255)"/><path d=" M 86.238 138.186 C 86.238 103.837 114.972 75.951 150.365 75.951 C 185.759 75.951 214.493 103.837 214.493 138.186 C 214.493 172.533 185.759 200.419 150.365 200.419 C 114.972 200.419 86.238 172.533 86.238 138.186 Z " fill="rgb(0,0,0)"/><path d=" M 174.92 150.431 Q 175.601 150.43 176.299 150.49 Q 176.997 150.551 177.739 150.665 Q 178.48 150.779 179.109 150.927 Q 179.737 151.074 180.261 151.264 L 178.806 155.258 Q 178.115 154.38 177.267 153.897 Q 176.42 153.414 175.495 153.417 Q 174.946 153.418 174.702 153.63 Q 174.458 153.842 174.459 154.158 Q 174.46 154.456 174.936 154.729 Q 175.412 155.001 176.407 155.355 Q 179 156.253 179.762 157.147 Q 180.505 158.024 180.509 159.319 Q 180.514 161.335 178.907 162.413 Q 177.301 163.492 174.117 163.5 Q 172.459 163.504 170.967 163.292 Q 169.475 163.08 168.034 162.561 L 169.463 158.327 Q 170.076 159.238 171.01 159.791 Q 171.937 160.345 172.8 160.342 Q 173.228 160.341 173.511 160.137 Q 173.793 159.933 173.793 159.626 Q 173.792 159.261 173.394 158.993 Q 172.997 158.724 172.158 158.419 Q 170.098 157.686 169.328 156.826 Q 168.567 155.956 168.564 154.695 Q 168.558 152.58 170.16 151.51 Q 171.763 150.44 174.92 150.431 Z " fill="rgb(255,255,255)"/></svg>